<svg xmlns="http://www.w3.org/2000/svg" viewBox="0 0 100 99" width="100" height="99">
	<defs>
		<linearGradient id="grd1" gradientUnits="userSpaceOnUse"  x1="9.585" y1="8.642" x2="58.725" y2="57.946">
			<stop offset="0" stop-color="#387eb8"  />
			<stop offset="1" stop-color="#366994"  />
		</linearGradient>
		<linearGradient id="grd2" gradientUnits="userSpaceOnUse"  x1="39.819" y1="39.981" x2="92.649" y2="90.594">
			<stop offset="0" stop-color="#ffe052"  />
			<stop offset="1" stop-color="#ffc331"  />
		</linearGradient>
	</defs>
	<style>
		tspan { white-space:pre }
		.shp0 { fill: url(#grd1) } 
		.shp1 { fill: url(#grd2) } 
	</style>
	<g id="layer1">
		<g id="g1894">
			<path id="path8615" fill-rule="evenodd" class="shp0" d="M73.73 13.19C73.73 13.19 73.73 21.81 73.73 34.99C73.73 48.17 60.31 47.95 60.31 47.95C60.31 47.95 50.74 47.95 36.41 47.95C22.07 47.95 22.52 62.05 22.52 62.05L22.52 73.85L14.11 73.85C14.11 73.85 0 74.76 0 49.3C0 23.85 16.16 25.68 16.16 25.68L49.83 25.68L49.83 22.28L25.73 22.28L25.7 10.94C25.7 10.94 24.13 0 49.38 0C75.77 0 73.73 13.19 73.73 13.19ZM31.76 11.95C31.76 14.35 33.69 16.28 36.09 16.28C38.49 16.28 40.43 14.35 40.43 11.95C40.43 9.56 38.49 7.62 36.09 7.62C33.69 7.62 31.76 9.56 31.76 11.95Z" />
			<path id="path8620" fill-rule="evenodd" class="shp1" d="M25.75 85.67C25.75 85.67 25.75 77.06 25.75 63.87C25.75 50.69 39.17 50.9 39.17 50.9C39.17 50.9 48.74 50.9 63.07 50.9C77.41 50.9 76.95 36.82 76.95 36.82L76.95 25L85.37 25C85.37 25 99.48 24.1 99.48 49.55C99.48 75.02 83.32 73.18 83.32 73.18L49.65 73.18L49.65 76.59L73.75 76.59L73.77 87.92C73.77 87.92 75.35 98.86 50.1 98.86C23.7 98.86 25.75 85.67 25.75 85.67ZM67.72 86.9C67.72 84.51 65.78 82.58 63.39 82.58C60.99 82.58 59.05 84.51 59.05 86.9C59.05 89.31 60.99 91.24 63.39 91.24C65.78 91.24 67.72 89.31 67.72 86.9Z" />
		</g>
	</g>
</svg>