<svg xmlns="http://www.w3.org/2000/svg" viewBox="0 0 150 78" width="150" height="78">
	<style>
		tspan { white-space:pre }
		.shp0 { fill: #e25a1c } 
		.shp1 { fill: #3c3a3e } 
	</style>
	<g id="g4163">
		<g id="g4165">
			<path id="path4167" fill-rule="evenodd" class="shp0" d="M136.9 39.32C136.77 39.05 136.71 38.91 136.64 38.78C134.77 35.21 132.9 31.63 131 28.07C130.81 27.71 130.84 27.5 131.1 27.2C134.08 23.71 137.05 20.2 140.02 16.71C140.12 16.58 140.22 16.45 140.26 16.23C139.39 16.46 138.52 16.69 137.65 16.92C134.05 17.87 130.44 18.82 126.84 19.79C126.51 19.88 126.35 19.79 126.19 19.51C124.14 16.08 122.08 12.67 120.03 9.25C119.92 9.07 119.81 8.9 119.58 8.75C119.42 9.67 119.25 10.58 119.09 11.49C118.51 14.71 117.94 17.93 117.37 21.15C117.31 21.5 117.22 21.84 117.2 22.2C117.17 22.53 117 22.65 116.7 22.75C112.45 24.08 108.21 25.43 103.96 26.77C103.78 26.83 103.6 26.91 103.4 27.09C106.87 28.47 110.34 29.85 113.86 31.26C113.73 31.36 113.65 31.44 113.56 31.5C111.39 32.9 109.21 34.31 107.05 35.72C106.79 35.89 106.58 35.91 106.29 35.78C103.7 34.61 101.1 33.46 98.5 32.3C97.34 31.78 96.29 31.09 95.47 30.09C93.63 27.83 93.99 25.26 96.45 23.69C97.26 23.17 98.17 22.79 99.08 22.49C103.24 21.13 107.41 19.82 111.59 18.51C111.94 18.4 112.1 18.24 112.17 17.86C112.72 14.64 113.3 11.42 113.88 8.2C114.19 6.48 114.35 4.71 115.19 3.14C115.51 2.53 115.9 1.94 116.35 1.43C118.01 -0.41 120.32 -0.48 122.07 1.27C122.66 1.86 123.17 2.56 123.61 3.28C125.54 6.43 127.44 9.6 129.33 12.77C129.55 13.15 129.75 13.23 130.17 13.11C134.82 11.87 139.48 10.64 144.14 9.4C145.1 9.15 146.07 9.06 147.05 9.24C149.2 9.64 150.14 11.28 149.41 13.36C149.08 14.3 148.51 15.1 147.87 15.86C144.62 19.68 141.38 23.52 138.11 27.33C137.85 27.65 137.84 27.87 138.03 28.22C139.97 31.89 141.9 35.57 143.84 39.25C144.3 40.13 144.65 41.04 144.66 42.05C144.69 44.35 143.01 46.23 140.73 46.57C139.45 46.76 138.26 46.48 137.06 46.11C134.15 45.21 131.22 44.32 128.3 43.44C128.03 43.36 127.92 43.25 127.88 42.96C127.54 40.9 127.17 38.85 126.82 36.79C126.81 36.73 126.83 36.67 126.83 36.54C130.16 37.46 133.46 38.38 136.9 39.32" />
			<path id="path4169" fill-rule="evenodd" class="shp1" d="M131.21 69.34C128.58 69.33 125.95 69.32 123.32 69.33C122.97 69.33 122.77 69.23 122.58 68.94C119.46 64.19 116.33 59.44 113.21 54.7C113.11 54.55 113 54.4 112.83 54.15C112.15 59.27 111.49 64.28 110.83 69.3C108.53 69.3 106.28 69.3 103.94 69.3C104.02 68.63 104.1 67.98 104.18 67.33C104.85 62.19 105.53 57.05 106.2 51.9C106.85 46.99 107.49 42.07 108.15 37.16C108.17 37.01 108.26 36.82 108.38 36.75C110.75 35.2 113.13 33.66 115.51 32.13C115.55 32.1 115.59 32.1 115.72 32.07C115 37.56 114.28 43.02 113.57 48.47C113.6 48.49 113.63 48.51 113.65 48.53C117.39 44.38 121.12 40.24 124.93 36.01C125.04 36.65 125.14 37.19 125.23 37.74C125.5 39.3 125.76 40.86 126.04 42.42C126.1 42.74 126.02 42.93 125.81 43.15C123.39 45.68 120.99 48.22 118.58 50.75C118.48 50.87 118.38 50.98 118.26 51.11C118.33 51.23 118.4 51.35 118.48 51.46C122.63 57.3 126.78 63.13 130.93 68.96C131.01 69.07 131.12 69.15 131.21 69.25C131.21 69.28 131.21 69.31 131.21 69.34" />
			<path id="path4171" fill-rule="evenodd" class="shp1" d="M31.32 67.42C31.11 68.96 30.92 70.4 30.73 71.85C30.47 73.77 30.22 75.7 29.98 77.62C29.95 77.84 29.88 77.94 29.64 77.94C27.75 77.93 25.86 77.94 23.97 77.93C23.92 77.93 23.88 77.91 23.78 77.88C23.89 76.97 24 76.06 24.12 75.15C24.54 71.96 24.96 68.77 25.38 65.58C25.86 61.94 26.25 58.27 26.87 54.65C27.97 48.24 33.4 42.71 39.78 41.33C43.48 40.53 47.02 40.9 50.24 42.98C53.46 45.06 55.31 48.08 55.73 51.87C56.33 57.23 54.36 61.68 50.55 65.37C48.05 67.78 45.07 69.32 41.62 69.84C38.07 70.38 34.73 69.78 31.73 67.69C31.62 67.61 31.5 67.54 31.32 67.42ZM49.11 52.11C47.96 48.54 44.31 46.59 40.53 47.47C36.38 48.43 33.41 51.7 32.98 55.94C32.67 59.07 34.35 62.09 37.49 63.23C40.01 64.14 42.44 63.76 44.7 62.4C47.69 60.61 49.32 57.94 49.53 54.17C49.43 53.63 49.35 52.84 49.11 52.11Z" />
			<path id="path4173" fill-rule="evenodd" class="shp1" d="M28.23 36.94C26.11 38.52 24.06 40.05 22.01 41.58C21.68 41.05 21.38 40.53 21.03 40.05C20.14 38.8 19.03 37.87 17.42 37.76C16.08 37.66 14.94 38.1 14.03 39.09C13.21 39.98 13.1 41.23 13.87 42.23C14.7 43.33 15.62 44.38 16.56 45.39C18.11 47.08 19.74 48.7 21.28 50.4C22.69 51.94 23.81 53.68 24.15 55.79C24.57 58.29 24.07 60.68 22.88 62.89C20.69 66.97 17.24 69.34 12.68 70.08C10.66 70.4 8.66 70.34 6.69 69.76C4.08 68.99 2.27 67.28 1.1 64.86C0.69 64.01 0.37 63.11 0 62.19C2.28 60.97 4.5 59.78 6.75 58.57C6.83 58.76 6.88 58.92 6.96 59.07C7.34 59.83 7.65 60.65 8.13 61.36C9.54 63.46 11.81 64.1 14.12 63.06C14.72 62.79 15.29 62.42 15.77 61.98C17.26 60.66 17.54 58.82 16.44 57.16C15.81 56.2 15.02 55.34 14.24 54.49C12.4 52.44 10.49 50.45 8.69 48.37C7.45 46.93 6.61 45.26 6.34 43.33C6.05 41.23 6.47 39.25 7.56 37.48C10.27 33.08 14.22 30.79 19.44 30.98C22.41 31.09 24.78 32.48 26.62 34.8C27.16 35.48 27.67 36.2 28.23 36.94" />
			<path id="path4175" fill-rule="evenodd" class="shp1" d="M78.64 60.55C78.29 63.2 77.96 65.71 77.62 68.23C77.61 68.36 77.51 68.53 77.4 68.58C72.26 70.96 65.5 70.63 61.28 65.83C59.01 63.26 58.06 60.2 58.21 56.79C58.53 48.92 65.06 42.04 72.86 41.08C77.41 40.52 81.41 41.75 84.5 45.3C86.6 47.71 87.57 50.59 87.43 53.78C87.33 55.88 87 57.97 86.74 60.06C86.37 63.03 85.97 65.99 85.58 68.95C85.56 69.05 85.54 69.16 85.52 69.29C83.49 69.29 81.46 69.29 79.37 69.29C79.46 68.61 79.53 67.94 79.62 67.28C80.06 63.86 80.55 60.44 80.94 57.02C81.18 54.88 81.03 52.77 80.06 50.79C79.02 48.69 77.28 47.58 75 47.34C70.26 46.83 65.76 50.13 64.75 54.79C64.09 57.87 65.14 60.82 67.59 62.45C69.97 64.04 72.53 64.04 75.13 63.01C76.44 62.49 77.57 61.66 78.64 60.55" />
			<path id="path4177" fill-rule="evenodd" class="shp1" d="M104.51 41.68C104.23 43.81 103.95 45.91 103.67 48.06C102.37 48.06 101.1 48.05 99.82 48.06C98.79 48.07 97.85 48.74 97.54 49.7C97.42 50.08 97.37 50.48 97.32 50.88C96.68 55.78 96.03 60.68 95.39 65.57C95.23 66.81 95.07 68.05 94.91 69.3C92.78 69.3 90.68 69.3 88.52 69.3C88.63 68.36 88.75 67.45 88.87 66.54C89.28 63.36 89.7 60.19 90.12 57.01C90.48 54.27 90.81 51.51 91.24 48.78C91.81 45.11 95.46 41.85 99.15 41.69C100.92 41.61 102.69 41.68 104.51 41.68" />
			<path id="path4179" class="shp1" d="M138.75 69.3L138.75 66.6L138.74 66.6L137.68 69.3L137.34 69.3L136.28 66.6L136.26 66.6L136.26 69.3L135.73 69.3L135.73 66.06L136.55 66.06L137.52 68.52L138.47 66.06L139.29 66.06L139.29 69.3L138.75 69.3L138.75 69.3ZM134.06 66.49L134.06 69.3L133.52 69.3L133.52 66.49L132.51 66.49L132.51 66.06L135.07 66.06L135.07 66.49L134.06 66.49" />
			<path id="path4181" fill-rule="evenodd" class="shp1" d="M38.63 33.94L36 33.94L35.16 35.59L33.29 35.59L37.41 27.88L39.21 27.88L40.61 35.59L38.88 35.59C38.88 35.59 38.63 33.94 38.63 33.94ZM38.38 32.39L38.01 29.99L36.8 32.39L38.38 32.39Z" />
			<path id="path4183" fill-rule="evenodd" class="shp1" d="M45.8 27.88L48.27 27.88C49.56 27.88 50.46 28.65 50.46 29.98C50.46 31.64 49.28 32.76 47.61 32.76L46.54 32.76L46.05 35.59L44.44 35.59L45.8 27.88ZM47.13 29.43L46.82 31.21L47.76 31.21C48.32 31.21 48.78 30.84 48.78 30.13C48.78 29.67 48.49 29.43 48.07 29.43L47.13 29.43Z" />
			<path id="path4185" fill-rule="evenodd" class="shp1" d="M57.76 33.94L55.12 33.94L54.28 35.59L52.41 35.59L56.53 27.88L58.34 27.88L59.74 35.59L58.01 35.59C58.01 35.59 57.76 33.94 57.76 33.94ZM55.92 32.39L57.51 32.39L57.13 29.99L55.92 32.39Z" />
			<path id="path4187" class="shp1" d="M68.19 35.32C67.64 35.57 67.04 35.71 66.44 35.71C64.41 35.71 63.13 34.18 63.13 32.27C63.13 29.82 65.19 27.75 67.63 27.75C68.24 27.75 68.8 27.9 69.25 28.15L69.03 30C68.69 29.62 68.14 29.36 67.46 29.36C66.06 29.36 64.81 30.63 64.81 32.11C64.81 33.23 65.52 34.1 66.63 34.1C67.31 34.1 67.96 33.84 68.4 33.48L68.19 35.32" />
			<path id="path4189" class="shp1" d="M78.01 32.48L74.66 32.48L74.12 35.59L72.51 35.59L73.87 27.88L75.48 27.88L74.93 30.93L78.29 30.93L78.83 27.88L80.44 27.88L79.08 35.59L77.47 35.59L78.01 32.48Z" />
			<path id="path4191" class="shp1" d="M83.91 35.59L85.27 27.88L89.54 27.88L89.26 29.43L86.6 29.43L86.33 30.93L88.78 30.93L88.51 32.48L86.06 32.48L85.79 34.04L88.45 34.04L88.18 35.59L83.91 35.59" />
		</g>
	</g>
</svg>